<svg width="200" height="60" viewBox="0 0 200 60" fill="none" xmlns="http://www.w3.org/2000/svg">
  <!-- Logo horizontal CatchinCup™ -->
  <g transform="translate(10, 30)">
    <!-- Tasse de café stylisée -->
    <path d="M0 -15C-8 -15 -15 -8 -15 0C-15 8 -8 15 0 15C8 15 15 8 15 0C15 -8 8 -15 0 -15Z" 
          fill="#1E293B"/>
    
    <!-- Hanse de la tasse -->
    <path d="M15 -8C18 -8 21 -5 21 -2C21 1 18 4 15 4" 
          stroke="#1E293B" 
          stroke-width="3" 
          fill="none" 
          stroke-linecap="round"/>
    
    <!-- Vapeur de café -->
    <path d="M-3 -20C-2 -22 -1 -24 0 -26C1 -24 2 -22 3 -20" 
          stroke="#1E293B" 
          stroke-width="2" 
          fill="none" 
          stroke-linecap="round" 
          opacity="0.7"/>
    
    <path d="M3 -18C4 -20 5 -22 6 -24C5 -22 4 -20 3 -18" 
          stroke="#1E293B" 
          stroke-width="2" 
          fill="none" 
          stroke-linecap="round" 
          opacity="0.5"/>
  </g>
  
  <!-- Texte CatchinCup™ -->
  <text x="50" y="35" font-family="Inter, -apple-system, BlinkMacSystemFont, sans-serif" font-size="28" font-weight="700" fill="#1E293B">
    CatchinCup™
  </text>
</svg>
